# xmcd CD database file
#
# Track frame offsets:
#	150
#	25491
#	49486
#	65010
#	84059
#	100932
#	117055
#	136692
#	152661
#	171550
#	189771
#	202740
#	218629
#	234974
#	250716
#	267733
#	283555
#	298925
#	315270
#	329890
#
# Disc length: 4629 seconds
#
# Revision: 2
# Processed by: cddbd v1.5.2PL0 Copyright (c) Steve Scherf et al.
# Submitted via: jetAudio 7
#
DISCID=20121314
DTITLE=Иван Кучин - Бульвар звёзд
DYEAR=1900
DGENRE=Chanson
TTITLE0=Хрустальная ваза
TTITLE1=Человек в телогрейке
TTITLE2=Колечко
TTITLE3=Крестовая печать
TTITLE4=Обыкновенная
TTITLE5=Рецидивист
TTITLE6=В таверне
TTITLE7=Не уходи
TTITLE8=Цветет сирень
TTITLE9=Бандитский нож
TTITLE10=Мостик
TTITLE11=Сентим детектив1
TTITLE12=Чикаго
TTITLE13=Запретная зона
TTITLE14=Судьба воровская
TTITLE15=Сентим детектив2
TTITLE16=А на черных ресницах
TTITLE17=Таволга
TTITLE18=Сон
TTITLE19=Последнее письмо
EXTD=
EXTT0=
EXTT1=
EXTT2=
EXTT3=
EXTT4=
EXTT5=
EXTT6=
EXTT7=
EXTT8=
EXTT9=
EXTT10=
EXTT11=
EXTT12=
EXTT13=
EXTT14=
EXTT15=
EXTT16=
EXTT17=
EXTT18=
EXTT19=
PLAYORDER=
